<svg enable-background="new -260 40 520 520" height="520" viewBox="-260 40 520 520" width="520" xmlns="http://www.w3.org/2000/svg"><g fill="#e5e5e5"><path d="m100 360h-40v-40h-39.9v120.1h39.9v39.9h40z"/><path d="m100 480h40v40h-40z"/><path d="m179.9 480h40v40h-40z"/><path d="m220 320h-40.1v40h-40v120h40v-39.9h40.1z"/><path d="m20.1 480h40v40h-40z"/><path d="m-139.9 159.9h40v40h-40z"/><path d="m-220 80v200h199.9v-200zm160 159.9h-119.9v-119.9h120v119.9z"/><path d="m100 159.9h40v40h-40z"/><path d="m20.1 80v200h199.9v-200zm159.8 159.9h-119.9v-119.9h120v119.9z"/><path d="m-139.9 399.9h40v40h-40z"/><path d="m-220 320v200h199.9v-200zm160 160h-119.9v-120h120v120z"/></g></svg>